<svg id="visual" viewBox="0 0 960 540" width="960" height="540" xmlns="http://www.w3.org/2000/svg" xmlns:xlink="http://www.w3.org/1999/xlink" version="1.1"><g transform="translate(478.3312746562219 269.84834442502375)"><path d="M131.7 -166.3C174.5 -150.2 215.7 -116.8 228.8 -74.7C241.9 -32.7 227 18.1 197.4 50.2C167.8 82.3 123.6 95.8 88.3 107.6C52.9 119.5 26.5 129.7 -12.1 146.5C-50.7 163.2 -101.5 186.4 -143 176.5C-184.5 166.7 -216.9 123.8 -226.8 77.4C-236.8 31 -224.4 -19 -197.8 -52.9C-171.2 -86.9 -130.3 -105 -94.9 -123.5C-59.6 -142 -29.8 -161 7.3 -171.1C44.5 -181.2 89 -182.4 131.7 -166.3" fill="#94a3b81f"></path></g></svg>