<svg id="visual" viewBox="0 0 960 540" width="960" height="540" xmlns="http://www.w3.org/2000/svg" xmlns:xlink="http://www.w3.org/1999/xlink" version="1.1"><g transform="matrix(1,0,0,1,512.7,246)"><path transform="matrix(2.1,0,0,1.2,39.9,-195.2)" d="M 132.1 12.6 C 154.6 46.4 143.9 102.1 146.2 159.9 C 148.4 217.8 163.5 277.9 141 320.4 C 118.5 362.9 58.4 387.8 -3.5 389.6 C -65.3 391.3 -129 370 -170.6 327.5 C -212.3 285 -232 221.3 -217 172.7 C -202.1 124 -152.4 90.3 -110.8 56.5 C -69.1 22.6 -35.4 -11.3 9.3 -22.3 C 53.9 -33.3 109.6 -21.2 132.1 12.6" fill="#9fc0ce"></path></g></svg>