<svg id="visual" viewBox="0 0 900 600" width="900" height="600" xmlns="http://www.w3.org/2000/svg" xmlns:xlink="http://www.w3.org/1999/xlink" version="1.1"><rect x="0" y="0" width="900" height="600" fill="#ffffff00"></rect><path d="M 0 249 L 30 249.5 C 60 250 120 251 180 227.8 C 240 204.7 300 157.3 360 150.3 C 420 143.3 480 176.7 540 190.2 C 600 203.7 660 197.3 720 199.2 C 780 201 840 211 870 216 L 900 221 L 900 601 L 870 601 C 840 601 780 601 720 601 C 660 601 600 601 540 601 C 480 601 420 601 360 601 C 300 601 240 601 180 601 C 120 601 60 601 30 601 L 0 601 Z" fill="rgb(243, 227, 206)"></path><path d="M 0 190 L 30 184.7 C 60 179.3 120 168.7 180 172.7 C 240 176.7 300 195.3 360 216.7 C 420 238 480 262 540 263.3 C 600 264.7 660 243.3 720 230 C 780 216.7 840 211.3 870 208.7 L 900 206 L 900 601 L 870 601 C 840 601 780 601 720 601 C 660 601 600 601 540 601 C 480 601 420 601 360 601 C 300 601 240 601 180 601 C 120 601 60 601 30 601 L 0 601 Z" fill="#f7ede1"></path><path d="M 0 303 L 30 291.5 C 60 280 120 257 180 258.2 C 240 259.3 300 284.7 360 298.5 C 420 312.3 480 314.7 540 313 C 600 311.3 660 305.7 720 302.3 C 780 299 840 298 870 297.5 L 900 297 L 900 601 L 870 601 C 840 601 780 601 720 601 C 660 601 600 601 540 601 C 480 601 420 601 360 601 C 300 601 240 601 180 601 C 120 601 60 601 30 601 L 0 601 Z" fill="#eedbc3"></path><path d="M 0 288 L 30 295 C 60 302 120 316 180 331.8 C 240 347.7 300 365.3 360 360.2 C 420 355 480 327 540 321.3 C 600 315.7 660 332.3 720 332.7 C 780 333 840 317 870 309 L 900 301 L 900 601 L 870 601 C 840 601 780 601 720 601 C 660 601 600 601 540 601 C 480 601 420 601 360 601 C 300 601 240 601 180 601 C 120 601 60 601 30 601 L 0 601 Z" fill="#e4c9a6"></path>
</svg>