<svg id="visual" viewBox="0 0 900 600" width="900" height="600" xmlns="http://www.w3.org/2000/svg" xmlns:xlink="http://www.w3.org/1999/xlink" version="1.1"><path d="M0 220L39 220L39 214L78 214L78 199L117 199L117 235L157 235L157 209L196 209L196 241L235 241L235 243L274 243L274 237L313 237L313 191L352 191L352 204L391 204L391 193L430 193L430 187L470 187L470 203L509 203L509 225L548 225L548 202L587 202L587 200L626 200L626 216L665 216L665 239L704 239L704 216L743 216L743 187L783 187L783 238L822 238L822 226L861 226L861 233L900 233L900 206L900 601L900 601L861 601L861 601L822 601L822 601L783 601L783 601L743 601L743 601L704 601L704 601L665 601L665 601L626 601L626 601L587 601L587 601L548 601L548 601L509 601L509 601L470 601L470 601L430 601L430 601L391 601L391 601L352 601L352 601L313 601L313 601L274 601L274 601L235 601L235 601L196 601L196 601L157 601L157 601L117 601L117 601L78 601L78 601L39 601L39 601L0 601Z" fill="#b58536"></path><path d="M0 248L39 248L39 264L78 264L78 222L117 222L117 224L157 224L157 243L196 243L196 250L235 250L235 236L274 236L274 232L313 232L313 235L352 235L352 265L391 265L391 245L430 245L430 218L470 218L470 263L509 263L509 272L548 272L548 243L587 243L587 228L626 228L626 274L665 274L665 222L704 222L704 270L743 270L743 242L783 242L783 222L822 222L822 253L861 253L861 254L900 254L900 252L900 601L900 601L861 601L861 601L822 601L822 601L783 601L783 601L743 601L743 601L704 601L704 601L665 601L665 601L626 601L626 601L587 601L587 601L548 601L548 601L509 601L509 601L470 601L470 601L430 601L430 601L391 601L391 601L352 601L352 601L313 601L313 601L274 601L274 601L235 601L235 601L196 601L196 601L157 601L157 601L117 601L117 601L78 601L78 601L39 601L39 601L0 601Z" fill="#bc8f48"></path><path d="M0 263L39 263L39 282L78 282L78 291L117 291L117 256L157 256L157 278L196 278L196 276L235 276L235 298L274 298L274 263L313 263L313 273L352 273L352 254L391 254L391 265L430 265L430 256L470 256L470 313L509 313L509 253L548 253L548 279L587 279L587 267L626 267L626 254L665 254L665 292L704 292L704 293L743 293L743 258L783 258L783 300L822 300L822 296L861 296L861 312L900 312L900 273L900 601L900 601L861 601L861 601L822 601L822 601L783 601L783 601L743 601L743 601L704 601L704 601L665 601L665 601L626 601L626 601L587 601L587 601L548 601L548 601L509 601L509 601L470 601L470 601L430 601L430 601L391 601L391 601L352 601L352 601L313 601L313 601L274 601L274 601L235 601L235 601L196 601L196 601L157 601L157 601L117 601L117 601L78 601L78 601L39 601L39 601L0 601Z" fill="#c3995a"></path><path d="M0 345L39 345L39 348L78 348L78 317L117 317L117 347L157 347L157 336L196 336L196 343L235 343L235 291L274 291L274 288L313 288L313 306L352 306L352 303L391 303L391 297L430 297L430 314L470 314L470 295L509 295L509 315L548 315L548 349L587 349L587 304L626 304L626 297L665 297L665 300L704 300L704 335L743 335L743 347L783 347L783 300L822 300L822 343L861 343L861 350L900 350L900 346L900 601L900 601L861 601L861 601L822 601L822 601L783 601L783 601L743 601L743 601L704 601L704 601L665 601L665 601L626 601L626 601L587 601L587 601L548 601L548 601L509 601L509 601L470 601L470 601L430 601L430 601L391 601L391 601L352 601L352 601L313 601L313 601L274 601L274 601L235 601L235 601L196 601L196 601L157 601L157 601L117 601L117 601L78 601L78 601L39 601L39 601L0 601Z" fill="#c9a36c"></path><path d="M0 360L39 360L39 337L78 337L78 337L117 337L117 358L157 358L157 349L196 349L196 336L235 336L235 351L274 351L274 368L313 368L313 335L352 335L352 355L391 355L391 326L430 326L430 342L470 342L470 337L509 337L509 343L548 343L548 355L587 355L587 325L626 325L626 378L665 378L665 375L704 375L704 340L743 340L743 368L783 368L783 335L822 335L822 356L861 356L861 380L900 380L900 340L900 601L900 601L861 601L861 601L822 601L822 601L783 601L783 601L743 601L743 601L704 601L704 601L665 601L665 601L626 601L626 601L587 601L587 601L548 601L548 601L509 601L509 601L470 601L470 601L430 601L430 601L391 601L391 601L352 601L352 601L313 601L313 601L274 601L274 601L235 601L235 601L196 601L196 601L157 601L157 601L117 601L117 601L78 601L78 601L39 601L39 601L0 601Z" fill="#cfad7d"></path><path d="M0 369L39 369L39 411L78 411L78 382L117 382L117 372L157 372L157 392L196 392L196 372L235 372L235 382L274 382L274 367L313 367L313 415L352 415L352 365L391 365L391 371L430 371L430 414L470 414L470 358L509 358L509 378L548 378L548 409L587 409L587 383L626 383L626 407L665 407L665 404L704 404L704 412L743 412L743 367L783 367L783 414L822 414L822 414L861 414L861 381L900 381L900 379L900 601L900 601L861 601L861 601L822 601L822 601L783 601L783 601L743 601L743 601L704 601L704 601L665 601L665 601L626 601L626 601L587 601L587 601L548 601L548 601L509 601L509 601L470 601L470 601L430 601L430 601L391 601L391 601L352 601L352 601L313 601L313 601L274 601L274 601L235 601L235 601L196 601L196 601L157 601L157 601L117 601L117 601L78 601L78 601L39 601L39 601L0 601Z" fill="#d5b78f"></path><path d="M0 396L39 396L39 450L78 450L78 420L117 420L117 404L157 404L157 416L196 416L196 395L235 395L235 397L274 397L274 417L313 417L313 416L352 416L352 420L391 420L391 417L430 417L430 401L470 401L470 428L509 428L509 421L548 421L548 429L587 429L587 422L626 422L626 452L665 452L665 444L704 444L704 435L743 435L743 449L783 449L783 451L822 451L822 451L861 451L861 421L900 421L900 453L900 601L900 601L861 601L861 601L822 601L822 601L783 601L783 601L743 601L743 601L704 601L704 601L665 601L665 601L626 601L626 601L587 601L587 601L548 601L548 601L509 601L509 601L470 601L470 601L430 601L430 601L391 601L391 601L352 601L352 601L313 601L313 601L274 601L274 601L235 601L235 601L196 601L196 601L157 601L157 601L117 601L117 601L78 601L78 601L39 601L39 601L0 601Z" fill="#dac1a1"></path><path d="M0 482L39 482L39 482L78 482L78 440L117 440L117 484L157 484L157 473L196 473L196 446L235 446L235 450L274 450L274 485L313 485L313 456L352 456L352 485L391 485L391 472L430 472L430 429L470 429L470 430L509 430L509 479L548 479L548 436L587 436L587 486L626 486L626 475L665 475L665 464L704 464L704 443L743 443L743 460L783 460L783 458L822 458L822 468L861 468L861 442L900 442L900 453L900 601L900 601L861 601L861 601L822 601L822 601L783 601L783 601L743 601L743 601L704 601L704 601L665 601L665 601L626 601L626 601L587 601L587 601L548 601L548 601L509 601L509 601L470 601L470 601L430 601L430 601L391 601L391 601L352 601L352 601L313 601L313 601L274 601L274 601L235 601L235 601L196 601L196 601L157 601L157 601L117 601L117 601L78 601L78 601L39 601L39 601L0 601Z" fill="#dfcbb3"></path><path d="M0 500L39 500L39 508L78 508L78 518L117 518L117 463L157 463L157 464L196 464L196 473L235 473L235 512L274 512L274 481L313 481L313 465L352 465L352 494L391 494L391 519L430 519L430 471L470 471L470 481L509 481L509 468L548 468L548 474L587 474L587 504L626 504L626 520L665 520L665 523L704 523L704 488L743 488L743 481L783 481L783 487L822 487L822 511L861 511L861 466L900 466L900 474L900 601L900 601L861 601L861 601L822 601L822 601L783 601L783 601L743 601L743 601L704 601L704 601L665 601L665 601L626 601L626 601L587 601L587 601L548 601L548 601L509 601L509 601L470 601L470 601L430 601L430 601L391 601L391 601L352 601L352 601L313 601L313 601L274 601L274 601L235 601L235 601L196 601L196 601L157 601L157 601L117 601L117 601L78 601L78 601L39 601L39 601L0 601Z" fill="#e4d6c6"></path><path d="M0 515L39 515L39 556L78 556L78 515L117 515L117 522L157 522L157 502L196 502L196 524L235 524L235 530L274 530L274 518L313 518L313 536L352 536L352 514L391 514L391 518L430 518L430 553L470 553L470 522L509 522L509 532L548 532L548 559L587 559L587 512L626 512L626 560L665 560L665 532L704 532L704 514L743 514L743 518L783 518L783 508L822 508L822 553L861 553L861 527L900 527L900 543L900 601L900 601L861 601L861 601L822 601L822 601L783 601L783 601L743 601L743 601L704 601L704 601L665 601L665 601L626 601L626 601L587 601L587 601L548 601L548 601L509 601L509 601L470 601L470 601L430 601L430 601L391 601L391 601L352 601L352 601L313 601L313 601L274 601L274 601L235 601L235 601L196 601L196 601L157 601L157 601L117 601L117 601L78 601L78 601L39 601L39 601L0 601Z" fill="#e7e0d8"></path><path d="M0 561L39 561L39 590L78 590L78 546L117 546L117 545L157 545L157 587L196 587L196 575L235 575L235 555L274 555L274 588L313 588L313 535L352 535L352 564L391 564L391 542L430 542L430 564L470 564L470 542L509 542L509 568L548 568L548 578L587 578L587 583L626 583L626 534L665 534L665 588L704 588L704 559L743 559L743 569L783 569L783 591L822 591L822 588L861 588L861 545L900 545L900 563L900 601L900 601L861 601L861 601L822 601L822 601L783 601L783 601L743 601L743 601L704 601L704 601L665 601L665 601L626 601L626 601L587 601L587 601L548 601L548 601L509 601L509 601L470 601L470 601L430 601L430 601L391 601L391 601L352 601L352 601L313 601L313 601L274 601L274 601L235 601L235 601L196 601L196 601L157 601L157 601L117 601L117 601L78 601L78 601L39 601L39 601L0 601Z" fill="#ebebeb"></path></svg>