<svg id="visual" viewBox="0 0 900 600" width="900" height="600" xmlns="http://www.w3.org/2000/svg" xmlns:xlink="http://www.w3.org/1999/xlink" version="1.1"><path d="M0 67L37.5 63C75 59 150 51 225 47C300 43 375 43 450 41C525 39 600 35 675 34C750 33 825 35 862.5 36L900 37L900 0L862.5 0C825 0 750 0 675 0C600 0 525 0 450 0C375 0 300 0 225 0C150 0 75 0 37.5 0L0 0Z" fill="#cca66c"></path><path d="M0 103L37.5 105C75 107 150 111 225 111C300 111 375 107 450 101C525 95 600 87 675 86C750 85 825 91 862.5 94L900 97L900 35L862.5 34C825 33 750 31 675 32C600 33 525 37 450 39C375 41 300 41 225 45C150 49 75 57 37.5 61L0 65Z" fill="#c69e5f"></path><path d="M0 241L37.5 245C75 249 150 257 225 257C300 257 375 249 450 249C525 249 600 257 675 255C750 253 825 241 862.5 235L900 229L900 95L862.5 92C825 89 750 83 675 84C600 85 525 93 450 99C375 105 300 109 225 109C150 109 75 105 37.5 103L0 101Z" fill="#c19551"></path><path d="M0 337L37.5 338C75 339 150 341 225 335C300 329 375 315 450 321C525 327 600 353 675 354C750 355 825 331 862.5 319L900 307L900 227L862.5 233C825 239 750 251 675 253C600 255 525 247 450 247C375 247 300 255 225 255C150 255 75 247 37.5 243L0 239Z" fill="#bb8d44"></path><path d="M0 415L37.5 414C75 413 150 411 225 400C300 389 375 369 450 374C525 379 600 409 675 409C750 409 825 379 862.5 364L900 349L900 305L862.5 317C825 329 750 353 675 352C600 351 525 325 450 319C375 313 300 327 225 333C150 339 75 337 37.5 336L0 335Z" fill="#b58536"></path><path d="M0 475L37.5 470C75 465 150 455 225 444C300 433 375 421 450 429C525 437 600 465 675 462C750 459 825 425 862.5 408L900 391L900 347L862.5 362C825 377 750 407 675 407C600 407 525 377 450 372C375 367 300 387 225 398C150 409 75 411 37.5 412L0 413Z" fill="#a87c32"></path><path d="M0 553L37.5 547C75 541 150 529 225 528C300 527 375 537 450 543C525 549 600 551 675 547C750 543 825 533 862.5 528L900 523L900 389L862.5 406C825 423 750 457 675 460C600 463 525 435 450 427C375 419 300 431 225 442C150 453 75 463 37.5 468L0 473Z" fill="#9c732f"></path><path d="M0 577L37.5 572C75 567 150 557 225 555C300 553 375 559 450 565C525 571 600 577 675 577C750 577 825 571 862.5 568L900 565L900 521L862.5 526C825 531 750 541 675 545C600 549 525 547 450 541C375 535 300 525 225 526C150 527 75 539 37.5 545L0 551Z" fill="#906a2b"></path><path d="M0 601L37.5 601C75 601 150 601 225 601C300 601 375 601 450 601C525 601 600 601 675 601C750 601 825 601 862.5 601L900 601L900 563L862.5 566C825 569 750 575 675 575C600 575 525 569 450 563C375 557 300 551 225 553C150 555 75 565 37.5 570L0 575Z" fill="#846128"></path></svg>