<svg id="visual" viewBox="0 0 960 540" width="960" height="540" xmlns="http://www.w3.org/2000/svg" xmlns:xlink="http://www.w3.org/1999/xlink" version="1.1"><path d="M911 540L911 540L911 501L930 501L930 463L921 463L921 424L930 424L930 386L901 386L901 347L921 347L921 309L930 309L930 270L921 270L921 231L930 231L930 193L921 193L921 154L911 154L911 116L921 116L921 77L911 77L911 39L911 39L911 0L960 0L960 39L960 39L960 77L960 77L960 116L960 116L960 154L960 154L960 193L960 193L960 231L960 231L960 270L960 270L960 309L960 309L960 347L960 347L960 386L960 386L960 424L960 424L960 463L960 463L960 501L960 501L960 540L960 540Z" fill="#b58536"></path><path d="M777 540L661 540L661 501L709 501L709 463L671 463L671 424L661 424L661 386L661 386L661 347L671 347L671 309L777 309L777 270L633 270L633 231L786 231L786 193L796 193L796 154L777 154L777 116L738 116L738 77L729 77L729 39L700 39L700 0L912 0L912 39L912 39L912 77L922 77L922 116L912 116L912 154L922 154L922 193L931 193L931 231L922 231L922 270L931 270L931 309L922 309L922 347L902 347L902 386L931 386L931 424L922 424L922 463L931 463L931 501L912 501L912 540L912 540Z" fill="#bd8f48"></path><path d="M719 540L604 540L604 501L661 501L661 463L642 463L642 424L623 424L623 386L604 386L604 347L623 347L623 309L748 309L748 270L575 270L575 231L748 231L748 193L767 193L767 154L748 154L748 116L700 116L700 77L681 77L681 39L652 39L652 0L701 0L701 39L730 39L730 77L739 77L739 116L778 116L778 154L797 154L797 193L787 193L787 231L634 231L634 270L778 270L778 309L672 309L672 347L662 347L662 386L662 386L662 424L672 424L672 463L710 463L710 501L662 501L662 540L778 540Z" fill="#c49959"></path><path d="M498 540L498 540L498 501L498 501L498 463L546 463L546 424L517 424L517 386L469 386L469 347L517 347L517 309L537 309L537 270L421 270L421 231L479 231L479 193L508 193L508 154L508 154L508 116L527 116L527 77L441 77L441 39L556 39L556 0L653 0L653 39L682 39L682 77L701 77L701 116L749 116L749 154L768 154L768 193L749 193L749 231L576 231L576 270L749 270L749 309L624 309L624 347L605 347L605 386L624 386L624 424L643 424L643 463L662 463L662 501L605 501L605 540L720 540Z" fill="#cca36b"></path><path d="M373 540L383 540L383 501L383 501L383 463L431 463L431 424L335 424L335 386L393 386L393 347L354 347L354 309L364 309L364 270L325 270L325 231L345 231L345 193L383 193L383 154L393 154L393 116L402 116L402 77L316 77L316 39L431 39L431 0L557 0L557 39L442 39L442 77L528 77L528 116L509 116L509 154L509 154L509 193L480 193L480 231L422 231L422 270L538 270L538 309L518 309L518 347L470 347L470 386L518 386L518 424L547 424L547 463L499 463L499 501L499 501L499 540L499 540Z" fill="#d2ad7c"></path><path d="M335 540L345 540L345 501L316 501L316 463L364 463L364 424L287 424L287 386L345 386L345 347L297 347L297 309L316 309L316 270L297 270L297 231L306 231L306 193L316 193L316 154L364 154L364 116L373 116L373 77L268 77L268 39L373 39L373 0L432 0L432 39L317 39L317 77L403 77L403 116L394 116L394 154L384 154L384 193L346 193L346 231L326 231L326 270L365 270L365 309L355 309L355 347L394 347L394 386L336 386L336 424L432 424L432 463L384 463L384 501L384 501L384 540L374 540Z" fill="#d9b88d"></path><path d="M220 540L229 540L229 501L249 501L249 463L306 463L306 424L220 424L220 386L249 386L249 347L229 347L229 309L258 309L258 270L229 270L229 231L249 231L249 193L249 193L249 154L316 154L316 116L277 116L277 77L210 77L210 39L277 39L277 0L374 0L374 39L269 39L269 77L374 77L374 116L365 116L365 154L317 154L317 193L307 193L307 231L298 231L298 270L317 270L317 309L298 309L298 347L346 347L346 386L288 386L288 424L365 424L365 463L317 463L317 501L346 501L346 540L336 540Z" fill="#dfc29f"></path><path d="M133 540L191 540L191 501L181 501L181 463L239 463L239 424L172 424L172 386L210 386L210 347L191 347L191 309L201 309L201 270L162 270L162 231L181 231L181 193L191 193L191 154L229 154L229 116L210 116L210 77L153 77L153 39L201 39L201 0L278 0L278 39L211 39L211 77L278 77L278 116L317 116L317 154L250 154L250 193L250 193L250 231L230 231L230 270L259 270L259 309L230 309L230 347L250 347L250 386L221 386L221 424L307 424L307 463L250 463L250 501L230 501L230 540L221 540Z" fill="#e5cdb0"></path><path d="M95 540L143 540L143 501L114 501L114 463L162 463L162 424L114 424L114 386L143 386L143 347L153 347L153 309L153 309L153 270L114 270L114 231L133 231L133 193L124 193L124 154L162 154L162 116L153 116L153 77L124 77L124 39L172 39L172 0L202 0L202 39L154 39L154 77L211 77L211 116L230 116L230 154L192 154L192 193L182 193L182 231L163 231L163 270L202 270L202 309L192 309L192 347L211 347L211 386L173 386L173 424L240 424L240 463L182 463L182 501L192 501L192 540L134 540Z" fill="#ead8c2"></path><path d="M57 540L66 540L66 501L66 501L66 463L66 463L66 424L47 424L47 386L76 386L76 347L76 347L76 309L66 309L66 270L57 270L57 231L66 231L66 193L76 193L76 154L66 154L66 116L95 116L95 77L57 77L57 39L85 39L85 0L173 0L173 39L125 39L125 77L154 77L154 116L163 116L163 154L125 154L125 193L134 193L134 231L115 231L115 270L154 270L154 309L154 309L154 347L144 347L144 386L115 386L115 424L163 424L163 463L115 463L115 501L144 501L144 540L96 540Z" fill="#f0e3d4"></path><path d="M37 540L47 540L47 501L47 501L47 463L28 463L28 424L18 424L18 386L47 386L47 347L28 347L28 309L47 309L47 270L28 270L28 231L47 231L47 193L28 193L28 154L28 154L28 116L47 116L47 77L28 77L28 39L37 39L37 0L86 0L86 39L58 39L58 77L96 77L96 116L67 116L67 154L77 154L77 193L67 193L67 231L58 231L58 270L67 270L67 309L77 309L77 347L77 347L77 386L48 386L48 424L67 424L67 463L67 463L67 501L67 501L67 540L58 540Z" fill="#f5eee7"></path><path d="M0 540L0 540L0 501L0 501L0 463L0 463L0 424L0 424L0 386L0 386L0 347L0 347L0 309L0 309L0 270L0 270L0 231L0 231L0 193L0 193L0 154L0 154L0 116L0 116L0 77L0 77L0 39L0 39L0 0L38 0L38 39L29 39L29 77L48 77L48 116L29 116L29 154L29 154L29 193L48 193L48 231L29 231L29 270L48 270L48 309L29 309L29 347L48 347L48 386L19 386L19 424L29 424L29 463L48 463L48 501L48 501L48 540L38 540Z" fill="#f9f9f9"></path></svg>