<svg id="visual" viewBox="0 0 900 600" width="900" height="600" xmlns="http://www.w3.org/2000/svg" xmlns:xlink="http://www.w3.org/1999/xlink" version="1.1"><path d="M0 31L900 25L900 0L0 0Z" fill="#b58536"></path><path d="M0 73L900 37L900 23L0 29Z" fill="#bb8e47"></path><path d="M0 205L900 151L900 35L0 71Z" fill="#c29757"></path><path d="M0 217L900 163L900 149L0 203Z" fill="#c8a067"></path><path d="M0 247L900 235L900 161L0 215Z" fill="#cda978"></path><path d="M0 253L900 271L900 233L0 245Z" fill="#d2b288"></path><path d="M0 325L900 313L900 269L0 251Z" fill="#d8bc98"></path><path d="M0 409L900 379L900 311L0 323Z" fill="#dcc5a9"></path><path d="M0 415L900 457L900 377L0 407Z" fill="#e1cfb9"></path><path d="M0 475L900 505L900 455L0 413Z" fill="#e5d8ca"></path><path d="M0 499L900 523L900 503L0 473Z" fill="#e9e2db"></path><path d="M0 601L900 601L900 521L0 497Z" fill="#ececec"></path></svg>