<svg xmlns="http://www.w3.org/2000/svg" width="552.8" height="515.5" viewBox="0 0 552.81023 515.45882" xmlns:xlink="http://www.w3.org/1999/xlink"><path d="M 372.6 365.4 H 174.3 c -16.7 0 -30.2 -13.6 -30.2 -30.2 V 136.9 c 0 -16.7 13.6 -30.2 30.2 -30.2 h 198.3 c 16.7 0 30.2 13.6 30.2 30.2 v 198.3 c 0 16.7 -13.6 30.2 -30.2 30.2 Z M 174.3 111.5 c -14 0 -25.4 11.4 -25.4 25.4 v 198.3 c 0 14 11.4 25.4 25.4 25.4 h 138.9 c 46.8 0 84.8 -38 84.8 -84.8 V 136.9 c 0 -14 -11.4 -25.4 -25.4 -25.4 H 174.3 Z" fill="#f2f2f2"/><path d="M 195.7 132.1 c -9.4 0 -17 7.6 -17 17 v 26.6 c 0 9.4 7.6 17 17 17 h 26.6 c 9.4 0 17 -7.6 17 -17 v -26.6 c 0 -9.4 -7.6 -17 -17 -17 h -26.6 Z" fill="#f2f2f2"/><path d="M 195.7 207.1 c -9.4 0 -17 7.6 -17 17 v 26.6 c 0 9.4 7.6 17 17 17 h 26.6 c 9.4 0 17 -7.6 17 -17 v -26.6 c 0 -9.4 -7.6 -17 -17 -17 h -26.6 Z" fill="#f2f2f2"/><path d="M 195.7 282.1 c -9.4 0 -17 7.6 -17 17 v 26.6 c 0 9.4 7.6 17 17 17 h 26.6 c 9.4 0 17 -7.6 17 -17 v -26.6 c 0 -9.4 -7.6 -17 -17 -17 h -26.6 Z" fill="#f2f2f2"/><g><path d="M 213.4 67.1 c -11.8 0 -21.4 9.6 -21.4 21.4 v 33.6 c 0 11.8 9.6 21.4 21.4 21.4 h 33.6 c 11.8 0 21.4 -9.6 21.4 -21.4 v -33.6 c 0 -11.8 -9.6 -21.4 -21.4 -21.4 h -33.6 Z" fill="#b58536"/><path d="M 323.9 160.9 c -11.8 0 -21.4 9.6 -21.4 21.4 v 33.6 c 0 11.8 9.6 21.4 21.4 21.4 h 33.6 c 11.8 0 21.4 -9.6 21.4 -21.4 v -33.6 c 0 -11.8 -9.6 -21.4 -21.4 -21.4 h -33.6 Z" fill="#b58536"/><g><polygon points="275.8,498.8 269,498.8 266,471.8 276.1,471.9 275.8,498.8" fill="#a0616a"/><path d="M 254 509.7 c 0 1.7 1.3 3.1 3 3.1 l 13.6 0.1 l 2.4 -4.8 l 0.9 4.8 l 5.1 0 l -1.3 -17.2 l -1.8 -0.1 l -7.3 -0.5 l -2.3 -0.2 l 0 4.9 l -10.9 7.4 c -0.8 0.6 -1.3 1.5 -1.3 2.5 Z" fill="#2f2e41"/></g><g><polygon points="310.5,498.8 303.7,498.8 300.7,471.8 310.8,471.9 310.5,498.8" fill="#a0616a"/><path d="M 288.7 509.7 c 0 1.7 1.3 3.1 3 3.1 l 13.6 0.1 l 2.4 -4.8 l 0.9 4.8 l 5.1 0 l -1.3 -17.2 l -1.8 -0.1 l -7.3 -0.5 l -2.3 -0.2 l 0 4.9 l -10.9 7.4 c -0.8 0.6 -1.3 1.5 -1.3 2.5 Z" fill="#2f2e41"/></g><path d="M 249.1 281.2 l 27.6 0.9 l 26.2 5.8 s -2.6 3.2 6.1 11.9 c 0 0 11.6 20.4 3.5 40.2 l -3.5 79.1 s 10.2 55.8 2.4 73.6 l -10.3 0.6 l -17.4 -73.5 l -8.5 -79.2 l -4.1 78 s 15.6 53.5 5.7 74.8 l -11.1 -0.6 l -19.1 -74.1 s -8.1 -85.5 -7 -101.8 c 1.2 -16.3 9.3 -35.5 9.3 -35.5 Z" fill="#2f2e41"/><g><path d="M 341.9 156.1 c -3.8 1 -6 4.8 -5.1 8.6 c 0.4 1.7 1.5 3.1 2.9 4.1 l 0 0 l -0.5 13 l 9.9 4.6 l 0.8 -20 l -0.1 0 c 0.9 -1.5 1.2 -3.4 0.7 -5.2 c -1 -3.8 -4.8 -6 -8.6 -5.1 Z" fill="#a0616a"/><path d="M 286.4 202.5 c -2.1 -2.1 -3.3 -4.9 -3.3 -7.9 c -0.1 -4.1 2 -7.8 5.5 -9.9 c 4 -2.5 9.1 -2.2 12.8 0.6 l 31.2 23.5 l 5.6 -33.8 l 11.9 3.8 l -2.8 44.1 c -0.2 3.1 -1.9 5.8 -4.7 7.3 c -2.7 1.5 -5.9 1.4 -8.6 -0.1 l -45.1 -25.7 c -0.9 -0.5 -1.7 -1.1 -2.4 -1.8 Z" fill="#3f3d56"/></g><g><path d="M 238.8 137.2 c 2 3.4 0.9 7.7 -2.5 9.7 c -1.5 0.9 -3.3 1.2 -4.9 0.9 l 0 0 l -8.8 9.6 l -10.3 -3.7 l 13.5 -14.7 l 0 0.1 c 0.5 -1.7 1.6 -3.2 3.2 -4.2 c 3.4 -2 7.7 -0.9 9.7 2.5 Z" fill="#a0616a"/><path d="M 242.6 208.8 l -50.1 -13.5 c -3 -0.8 -5.3 -3.1 -6.2 -6 c -0.9 -3 -0.2 -6.1 1.8 -8.4 l 29 -33.3 l 11.2 5.7 l -19.9 27.9 l 38.7 5.3 c 4.7 0.6 8.4 4 9.6 8.6 c 1 4 -0.2 8.1 -3.1 10.9 c -2.2 2.1 -5 3.3 -8 3.3 c -1 0 -2 -0.1 -3 -0.4 Z" fill="#3f3d56"/></g><path d="M 314 292.8 l -70 3.2 c -1.9 -2.9 -1.4 -7.3 1.3 -12.8 c 10.2 -20.8 2.4 -60.1 -2.7 -80.5 c -1.5 -5.7 2.5 -11.4 8.3 -12 l 6.6 -0.7 l 6.1 -18.6 h 21.4 l 8.9 10.1 l 15.1 9.1 c -2.7 28.2 -14.4 68.1 2.2 88.1 c 3.6 4.4 4.7 9.1 2.9 14.1 Z" fill="#3f3d56"/><circle cx="271.5" cy="151" r="20.8" fill="#a0616a"/><path d="M 295.1 137.7 c 2.9 -10.6 -28.7 -19.6 -34.8 -11.1 c -0.9 -1.2 -4 -1.9 -5.5 -1.6 c -1.4 0.4 -2.7 1.3 -3.9 2.2 c -1.6 1.3 -3.3 2.6 -4.3 4.4 c -1 1.8 -1.2 4.2 0.2 5.8 c 1.1 1.2 3 7.8 4.6 8.1 c 1.1 0.2 2.1 0.4 2.9 0.5 c 0.7 -1.1 2.6 -2.4 2.4 -3.7 c 1.1 0.7 0.7 2 0.5 3.3 c -0.7 4.4 -17.3 38.1 -7.8 28.1 c 0.9 0.6 2.1 1.1 3.5 1.6 c 2.3 -3.4 4.1 -7.5 5.4 -11.7 l 0 0.1 c 0.4 3.7 3.1 6.7 6.7 7.7 c 14.3 4.1 25.8 -1.9 29.8 -12.9 c -1.5 -3 -2.1 -2.6 -2 -2.7 c 1.8 -1.2 4.3 -0.4 5.1 1.6 c 0.2 0.6 0.4 1.1 0.6 1.5 c 2.1 -7.4 4.5 -6.3 -3.4 -21.3 Z" fill="#2f2e41"/><path d="M 285.2 130 l -1.5 -7.5 c -0.1 -0.6 -0.2 -1.3 0 -1.9 c 0.4 -0.7 1.3 -1 2.1 -0.9 c 0.8 0.1 1.4 0.9 2.2 1 c 2.8 0.5 6.5 -2.3 7.5 4.7 c 0.4 2.9 5.1 3.2 6.7 5.7 c 1.6 2.5 1.8 6.1 -0.4 8.2 c -1.7 1.6 -4.4 1.8 -6.6 1 c -2.2 -0.8 -4 -2.5 -5.5 -4.3 s -3 -3.7 -4.7 -5.3" fill="#2f2e41"/><path d="M 296.2 141.3 c -5.7 -0.8 -9.6 -2.9 -11.5 -6.2 c -2.6 -4.3 -0.8 -9.1 -0.8 -9.3 l 1.2 0.4 c 0 0 -1.6 4.4 0.7 8.2 c 1.8 2.9 5.3 4.8 10.6 5.5 l -0.2 1.3 Z" fill="#b58536"/></g><path d="M 322.9 60.8 c -16.8 0 -30.4 -13.6 -30.4 -30.4 S 306.2 0 322.9 0 s 30.4 13.6 30.4 30.4 s -13.6 30.4 -30.4 30.4 Z m 0 -48.6 c -10.1 0 -18.2 8.2 -18.2 18.2 s 8.2 18.2 18.2 18.2 s 18.2 -8.2 18.2 -18.2 s -8.2 -18.2 -18.2 -18.2 Z" fill="#b58536"/><path d="M 369.7 81.4 c -1.5 0 -3 -0.5 -4.2 -1.6 l -28.5 -26.7 c -2.5 -2.3 -2.6 -6.1 -0.3 -8.6 c 2.3 -2.5 6.1 -2.6 8.6 -0.3 l 28.5 26.7 c 2.5 2.3 2.6 6.1 0.3 8.6 c -1.2 1.3 -2.8 1.9 -4.4 1.9 Z" fill="#b58536"/><g><path d="M 498.6 498.1 c 2.1 0.1 3.2 -2.4 1.6 -3.9 l -0.2 -0.6 c 0 0 0 -0.1 0.1 -0.1 c 2.1 -5 9.2 -4.9 11.2 0 c 1.8 4.4 4.2 8.9 4.8 13.5 c 0.3 2.1 0.1 4.2 -0.3 6.2 c 4.3 -9.4 6.6 -19.7 6.6 -30 c 0 -2.6 -0.1 -5.2 -0.4 -7.8 c -0.2 -2.1 -0.6 -4.2 -1 -6.3 c -2.3 -11.3 -7.3 -22 -14.5 -31 c -3.5 -1.9 -6.3 -4.9 -8.1 -8.4 c -0.6 -1.3 -1.1 -2.7 -1.3 -4.1 c 0.4 0.1 1.5 -5.9 1.2 -6.3 c 0.5 -0.8 1.5 -1.2 2.1 -2.1 c 3 -4 7.1 -3.3 9.2 2.2 c 4.6 2.3 4.6 6.1 1.8 9.8 c -1.8 2.3 -2 5.5 -3.6 8 c 0.2 0.2 0.3 0.4 0.5 0.6 c 3 3.8 5.5 7.9 7.7 12.2 c -0.6 -4.8 0.3 -10.5 1.8 -14.2 c 1.7 -4.2 5 -7.8 7.9 -11.4 c 3.5 -4.4 10.6 -2.5 11.2 3.1 c 0 0.1 0 0.1 0 0.2 c -0.4 0.2 -0.8 0.5 -1.3 0.8 c -2.3 1.5 -1.5 5.2 1.2 5.6 l 0.1 0 c -0.2 1.5 -0.4 3.1 -0.8 4.6 c 3.7 14.3 -4.3 19.5 -15.7 19.8 c -0.3 0.1 -0.5 0.3 -0.7 0.4 c 1.2 3.3 2.1 6.6 2.8 10 c 0.6 3 1 6 1.3 9 c 0.3 3.8 0.3 7.7 -0.1 11.5 l 0 -0.1 c 0.8 -4.2 3.1 -8.1 6.4 -10.9 c 4.9 -4.1 11.9 -5.6 17.3 -8.8 c 2.6 -1.6 5.9 0.5 5.4 3.4 l 0 0.1 c -0.8 0.3 -1.6 0.7 -2.3 1.1 c -0.4 0.2 -0.8 0.5 -1.3 0.8 c -2.3 1.5 -1.5 5.2 1.2 5.6 l 0.1 0 c 0 0 0.1 0 0.1 0 c -1.4 3.2 -3.3 6.2 -5.6 8.8 c -2.3 12.5 -12.3 13.7 -22.9 10 h 0 c -1.2 5.1 -2.9 10 -5 14.7 h -18 c -0.1 -0.2 -0.1 -0.4 -0.2 -0.6 c 1.7 0.1 3.3 0 5 -0.3 c -1.3 -1.6 -2.7 -3.3 -4 -4.9 c 0 0 -0.1 -0.1 -0.1 -0.1 c -0.7 -0.8 -1.4 -1.7 -2 -2.5 l 0 0 c 0 -2.6 0.3 -5.1 0.9 -7.6 l 0 0 Z" fill="#f2f2f2"/><path d="M 0 514.3 c 0 0.7 0.5 1.2 1.2 1.2 H 551.5 c 0.7 0 1.2 -0.5 1.2 -1.2 c 0 -0.7 -0.5 -1.2 -1.2 -1.2 H 1.2 c -0.7 0 -1.2 0.5 -1.2 1.2 Z" fill="#cccccc"/></g></svg>