<svg xmlns="http://www.w3.org/2000/svg" data-name="Layer 1" width="782.4" height="665.6" viewBox="0 0 782.40551 665.60645" xmlns:xlink="http://www.w3.org/1999/xlink"><path d="M 896.7 758 c 8.6 16.6 27.3 24.1 27.3 24.1 s 4.8 -19.5 -3.7 -36.2 s -27.3 -24.1 -27.3 -24.1 S 888.1 741.4 896.7 758 Z" transform="translate(-208.8,-117.2)" fill="#f1f1f1"/><path d="M 902.9 752.7 c 15.8 9.9 21.6 29.2 21.6 29.2 s -19.9 3.1 -35.7 -6.8 S 867.2 745.9 867.2 745.9 S 887 742.8 902.9 752.7 Z" transform="translate(-208.8,-117.2)" fill="#f1f1f1"/><polygon points="471.6,653.4 460.5,653.4 455.2,610.6 471.6,610.6 471.6,653.4" fill="#ffb7b7"/><path d="M 683.2 781.4 l -35.8 0 v -0.5 a 13.9 13.9 0 0 1 13.9 -13.9 h 0 l 21.9 0 Z" transform="translate(-208.8,-117.2)" fill="#2f2e41"/><polygon points="540.4,653.4 529.3,653.4 524,610.6 540.4,610.6 540.4,653.4" fill="#ffb7b7"/><path d="M 752 781.4 l -35.8 0 v -0.5 a 13.9 13.9 0 0 1 13.9 -13.9 h 0 l 21.9 0 Z" transform="translate(-208.8,-117.2)" fill="#2f2e41"/><path d="M 717 529.3 L 695.1 485.4 l 5.6 -36.5 l -26.3 -7.2 L 671.8 490.6 l 34.1 46.3 a 9.1 9.1 0 1 0 11.1 -7.5 Z" transform="translate(-208.8,-117.2)" fill="#ffb7b7"/><path d="M 764.2 529.3 L 786.1 485.4 l -5.6 -36.5 l 26.3 -7.2 l 2.7 48.9 l -34.1 46.3 a 9.1 9.1 0 1 1 -11.1 -7.5 Z" transform="translate(-208.8,-117.2)" fill="#ffb7b7"/><circle cx="540.8" cy="238" r="23.9" fill="#ffb9b9"/><path d="M 725.9 355.1 s -2.6 -3.9 -1.6 -8.1 a 24.5 24.5 0 0 0 0.7 -7.3 a 72 72 0 0 1 4.2 -10.6 c 2.1 -3.8 1.1 -5.4 7.7 -6.6 s 3.9 -9.8 21.2 -0.5 a 5.1 5.1 0 0 0 5.3 2 c 3.6 -0.7 4.9 4.3 4.9 4.3 s 2.4 -1.4 3.3 0.6 s 7.3 -1.2 7.3 12.3 s -7.3 25.5 -7.3 25.5 s -5.1 16.1 -17 13.8 s -13.6 -0.9 -21.7 -16.3 C 731.2 369 728.7 350.8 725.9 355.1 Z" transform="translate(-208.8,-117.2)" fill="#2f2e41"/><path d="M 697.1 509.6 L 694.4 520.5 s -13 6.3 -18.3 62.9 l -7 84.9 L 658.3 757.3 l 22.3 1.7 l 15.5 -56.4 l 33.4 -118.5 l 6.3 89.7 l -7.1 81.3 l 23.5 0.9 l 16.3 -90.6 s 25 -132.7 8.9 -136.5 l -1.6 -13.8 Z" transform="translate(-208.8,-117.2)" fill="#2f2e41"/><path d="M 692 407.5 l 38.4 -21.2 l 32.6 1.7 l 39 23.1 l -16.2 101.4 s 9.3 10.4 -18.8 7.4 s -73.6 -5.5 -73.6 -5.5 s -3.7 -7.3 4.2 -8.3 s 1.3 -0.8 1.3 -0.8 s -4.7 -15.2 0 -18.1 l 2.3 -31.1 Z" transform="translate(-208.8,-117.2)" fill="#3f3d56"/><polygon points="493.8,291.9 483.2,290.3 460.7,330.4 497.2,346.4 493.8,291.9" fill="#3f3d56"/><polygon points="580.7,299.1 593.2,293.9 605.6,350.3 571.9,356.7 580.7,299.1" fill="#3f3d56"/><path d="M 501.2 782.8 h 489 a 1 1 0 0 0 0 -2 h -489 a 1 1 0 1 0 0 2 Z" transform="translate(-208.8,-117.2)" fill="#cbcbcb"/><rect x="113" y="397.6" width="127" height="64" fill="#ffffff"/><rect x="128" y="414" width="97" height="3.3" fill="#d0d0ef"/><rect x="128" y="428" width="97" height="3.3" fill="#d0d0ef"/><rect x="128" y="441.9" width="97" height="3.3" fill="#d0d0ef"/><path d="M 449.8 579.8 h -129 v -66 h 129 Z m -127 -2 h 125 v -62 h -125 Z" transform="translate(-208.8,-117.2)" fill="#3f3d56"/><path d="M 357.5 435.3 A 144.4 144.4 0 0 1 281.4 413.7 l -0.6 -0.4 l 0.4 -0.6 l 76 -122.9 H 502.3 v 0.7 C 502.3 370.4 437.4 435.3 357.5 435.3 Z" transform="translate(-208.8,-117.2)" fill="#d0d0ef"/><path d="M 264.4 383.1 L 263.9 382.8 a 116.3 116.3 0 0 1 -39.8 -156.5 l 0.3 -0.5 l 101.4 57.9 Z" transform="translate(-208.8,-117.2)" fill="#f1f1f1"/><path d="M 502.3 270.4 H 356.7 l 31.4 -142.2 l 0.7 0.1 A 144.8 144.8 0 0 1 502.3 269.8 Z" transform="matrix(1,0,0,1,-208.8,-117.2)" fill="#d0d0ef"/><path d="M 333.5 248 L 234.8 191.7 l 0.3 -0.5 a 113 113 0 0 1 122.4 -54.2 l 0.5 0.1 Z" transform="translate(-208.8,-117.2)" fill="#f1f1f1"/><rect x="367" y="1" width="127" height="64" fill="#ffffff"/><rect x="382" y="17.4" width="97" height="3.3" fill="#d0d0ef"/><rect x="382" y="31.4" width="97" height="3.3" fill="#d0d0ef"/><rect x="382" y="45.3" width="97" height="3.3" fill="#d0d0ef"/><path d="M 703.8 183.2 h -129 v -66 h 129 Z m -127 -2 h 125 v -62 h -125 Z" transform="translate(-208.8,-117.2)" fill="#3f3d56"/><rect x="175.8" y="232" width="2" height="164.6" fill="#3f3d56"/><rect x="418.3" y="184.1" width="164.8" height="2" transform="translate(-240.6,105.6) rotate(-24.3)" fill="#3f3d56"/></svg>