<svg id="visual" viewBox="0 0 900 600" width="900" height="600" xmlns="http://www.w3.org/2000/svg" xmlns:xlink="http://www.w3.org/1999/xlink" version="1.1"><rect x="0" y="0" width="900" height="600" fill="#001220"></rect><path d="M0 249L30 249.5C60 250 120 251 180 227.8C240 204.7 300 157.3 360 150.3C420 143.3 480 176.7 540 190.2C600 203.7 660 197.3 720 199.2C780 201 840 211 870 216L900 221L900 601L870 601C840 601 780 601 720 601C660 601 600 601 540 601C480 601 420 601 360 601C300 601 240 601 180 601C120 601 60 601 30 601L0 601Z" fill="#ffffff"></path><path d="M0 190L30 184.7C60 179.3 120 168.7 180 172.7C240 176.7 300 195.3 360 216.7C420 238 480 262 540 263.3C600 264.7 660 243.3 720 230C780 216.7 840 211.3 870 208.7L900 206L900 601L870 601C840 601 780 601 720 601C660 601 600 601 540 601C480 601 420 601 360 601C300 601 240 601 180 601C120 601 60 601 30 601L0 601Z" fill="#f7ede1"></path><path d="M0 303L30 291.5C60 280 120 257 180 258.2C240 259.3 300 284.7 360 298.5C420 312.3 480 314.7 540 313C600 311.3 660 305.7 720 302.3C780 299 840 298 870 297.5L900 297L900 601L870 601C840 601 780 601 720 601C660 601 600 601 540 601C480 601 420 601 360 601C300 601 240 601 180 601C120 601 60 601 30 601L0 601Z" fill="#eedbc3"></path><path d="M0 288L30 295C60 302 120 316 180 331.8C240 347.7 300 365.3 360 360.2C420 355 480 327 540 321.3C600 315.7 660 332.3 720 332.7C780 333 840 317 870 309L900 301L900 601L870 601C840 601 780 601 720 601C660 601 600 601 540 601C480 601 420 601 360 601C300 601 240 601 180 601C120 601 60 601 30 601L0 601Z" fill="#e4c9a6"></path><path d="M0 402L30 405.2C60 408.3 120 414.7 180 404.5C240 394.3 300 367.7 360 354.3C420 341 480 341 540 342C600 343 660 345 720 353.5C780 362 840 377 870 384.5L900 392L900 601L870 601C840 601 780 601 720 601C660 601 600 601 540 601C480 601 420 601 360 601C300 601 240 601 180 601C120 601 60 601 30 601L0 601Z" fill="#dab78a"></path><path d="M0 404L30 403.3C60 402.7 120 401.3 180 401C240 400.7 300 401.3 360 403.5C420 405.7 480 409.3 540 414.8C600 420.3 660 427.7 720 438C780 448.3 840 461.7 870 468.3L900 475L900 601L870 601C840 601 780 601 720 601C660 601 600 601 540 601C480 601 420 601 360 601C300 601 240 601 180 601C120 601 60 601 30 601L0 601Z" fill="#cea66e"></path><path d="M0 508L30 507.8C60 507.7 120 507.3 180 506.3C240 505.3 300 503.7 360 492.8C420 482 480 462 540 453C600 444 660 446 720 455.5C780 465 840 482 870 490.5L900 499L900 601L870 601C840 601 780 601 720 601C660 601 600 601 540 601C480 601 420 601 360 601C300 601 240 601 180 601C120 601 60 601 30 601L0 601Z" fill="#c29552"></path><path d="M0 534L30 532.2C60 530.3 120 526.7 180 528.3C240 530 300 537 360 540.2C420 543.3 480 542.7 540 543C600 543.3 660 544.7 720 546.3C780 548 840 550 870 551L900 552L900 601L870 601C840 601 780 601 720 601C660 601 600 601 540 601C480 601 420 601 360 601C300 601 240 601 180 601C120 601 60 601 30 601L0 601Z" fill="#b58536"></path></svg>