<svg id="visual" viewBox="0 0 900 600" width="900" height="600" xmlns="http://www.w3.org/2000/svg" xmlns:xlink="http://www.w3.org/1999/xlink" version="1.1"><path d="M570 0L579 0L579 26L601 26L601 52L547 52L547 78L586 78L586 104L538 104L538 130L535 130L535 157L543 157L543 183L613 183L613 209L593 209L593 235L610 235L610 261L620 261L620 287L595 287L595 313L562 313L562 339L597 339L597 365L600 365L600 391L575 391L575 417L541 417L541 443L576 443L576 470L619 470L619 496L542 496L542 522L561 522L561 548L550 548L550 574L591 574L591 600L0 600L0 574L0 574L0 548L0 548L0 522L0 522L0 496L0 496L0 470L0 470L0 443L0 443L0 417L0 417L0 391L0 391L0 365L0 365L0 339L0 339L0 313L0 313L0 287L0 287L0 261L0 261L0 235L0 235L0 209L0 209L0 183L0 183L0 157L0 157L0 130L0 130L0 104L0 104L0 78L0 78L0 52L0 52L0 26L0 26L0 0L0 0Z" fill="#b58536"></path><path d="M527 0L504 0L504 26L567 26L567 52L563 52L563 78L535 78L535 104L524 104L524 130L546 130L546 157L551 157L551 183L546 183L546 209L502 209L502 235L531 235L531 261L572 261L572 287L504 287L504 313L492 313L492 339L535 339L535 365L558 365L558 391L488 391L488 417L566 417L566 443L494 443L494 470L537 470L537 496L566 496L566 522L520 522L520 548L518 548L518 574L521 574L521 600L0 600L0 574L0 574L0 548L0 548L0 522L0 522L0 496L0 496L0 470L0 470L0 443L0 443L0 417L0 417L0 391L0 391L0 365L0 365L0 339L0 339L0 313L0 313L0 287L0 287L0 261L0 261L0 235L0 235L0 209L0 209L0 183L0 183L0 157L0 157L0 130L0 130L0 104L0 104L0 78L0 78L0 52L0 52L0 26L0 26L0 0L0 0Z" fill="#bc8f48"></path><path d="M504 0L476 0L476 26L463 26L463 52L516 52L516 78L483 78L483 104L485 104L485 130L452 130L452 157L506 157L506 183L490 183L490 209L519 209L519 235L502 235L502 261L515 261L515 287L430 287L430 313L520 313L520 339L481 339L481 365L498 365L498 391L518 391L518 417L462 417L462 443L460 443L460 470L513 470L513 496L449 496L449 522L455 522L455 548L431 548L431 574L490 574L490 600L0 600L0 574L0 574L0 548L0 548L0 522L0 522L0 496L0 496L0 470L0 470L0 443L0 443L0 417L0 417L0 391L0 391L0 365L0 365L0 339L0 339L0 313L0 313L0 287L0 287L0 261L0 261L0 235L0 235L0 209L0 209L0 183L0 183L0 157L0 157L0 130L0 130L0 104L0 104L0 78L0 78L0 52L0 52L0 26L0 26L0 0L0 0Z" fill="#c3995a"></path><path d="M382 0L377 0L377 26L424 26L424 52L379 52L379 78L395 78L395 104L385 104L385 130L463 130L463 157L467 157L467 183L440 183L440 209L445 209L445 235L453 235L453 261L428 261L428 287L457 287L457 313L428 313L428 339L377 339L377 365L443 365L443 391L455 391L455 417L449 417L449 443L397 443L397 470L380 470L380 496L449 496L449 522L385 522L385 548L374 548L374 574L380 574L380 600L0 600L0 574L0 574L0 548L0 548L0 522L0 522L0 496L0 496L0 470L0 470L0 443L0 443L0 417L0 417L0 391L0 391L0 365L0 365L0 339L0 339L0 313L0 313L0 287L0 287L0 261L0 261L0 235L0 235L0 209L0 209L0 183L0 183L0 157L0 157L0 130L0 130L0 104L0 104L0 78L0 78L0 52L0 52L0 26L0 26L0 0L0 0Z" fill="#c9a36c"></path><path d="M359 0L394 0L394 26L394 26L394 52L362 52L362 78L376 78L376 104L396 104L396 130L373 130L373 157L348 157L348 183L397 183L397 209L366 209L366 235L411 235L411 261L386 261L386 287L394 287L394 313L386 313L386 339L366 339L366 365L412 365L412 391L332 391L332 417L337 417L337 443L389 443L389 470L348 470L348 496L396 496L396 522L365 522L365 548L330 548L330 574L389 574L389 600L0 600L0 574L0 574L0 548L0 548L0 522L0 522L0 496L0 496L0 470L0 470L0 443L0 443L0 417L0 417L0 391L0 391L0 365L0 365L0 339L0 339L0 313L0 313L0 287L0 287L0 261L0 261L0 235L0 235L0 209L0 209L0 183L0 183L0 157L0 157L0 130L0 130L0 104L0 104L0 78L0 78L0 52L0 52L0 26L0 26L0 0L0 0Z" fill="#cfad7d"></path><path d="M346 0L283 0L283 26L326 26L326 52L342 52L342 78L311 78L311 104L342 104L342 130L326 130L326 157L349 157L349 183L277 183L277 209L352 209L352 235L342 235L342 261L278 261L278 287L362 287L362 313L332 313L332 339L286 339L286 365L324 365L324 391L289 391L289 417L293 417L293 443L282 443L282 470L349 470L349 496L279 496L279 522L278 522L278 548L328 548L328 574L331 574L331 600L0 600L0 574L0 574L0 548L0 548L0 522L0 522L0 496L0 496L0 470L0 470L0 443L0 443L0 417L0 417L0 391L0 391L0 365L0 365L0 339L0 339L0 313L0 313L0 287L0 287L0 261L0 261L0 235L0 235L0 209L0 209L0 183L0 183L0 157L0 157L0 130L0 130L0 104L0 104L0 78L0 78L0 52L0 52L0 26L0 26L0 0L0 0Z" fill="#d5b78f"></path><path d="M305 0L224 0L224 26L269 26L269 52L293 52L293 78L276 78L276 104L307 104L307 130L304 130L304 157L273 157L273 183L276 183L276 209L269 209L269 235L273 235L273 261L299 261L299 287L257 287L257 313L268 313L268 339L256 339L256 365L267 365L267 391L221 391L221 417L234 417L234 443L248 443L248 470L225 470L225 496L224 496L224 522L224 522L224 548L268 548L268 574L220 574L220 600L0 600L0 574L0 574L0 548L0 548L0 522L0 522L0 496L0 496L0 470L0 470L0 443L0 443L0 417L0 417L0 391L0 391L0 365L0 365L0 339L0 339L0 313L0 313L0 287L0 287L0 261L0 261L0 235L0 235L0 209L0 209L0 183L0 183L0 157L0 157L0 130L0 130L0 104L0 104L0 78L0 78L0 52L0 52L0 26L0 26L0 0L0 0Z" fill="#dac1a1"></path><path d="M176 0L176 0L176 26L240 26L240 52L173 52L173 78L189 78L189 104L230 104L230 130L225 130L225 157L172 157L172 183L215 183L215 209L171 209L171 235L192 235L192 261L256 261L256 287L254 287L254 313L180 313L180 339L246 339L246 365L171 365L171 391L188 391L188 417L204 417L204 443L235 443L235 470L210 470L210 496L213 496L213 522L198 522L198 548L237 548L237 574L220 574L220 600L0 600L0 574L0 574L0 548L0 548L0 522L0 522L0 496L0 496L0 470L0 470L0 443L0 443L0 417L0 417L0 391L0 391L0 365L0 365L0 339L0 339L0 313L0 313L0 287L0 287L0 261L0 261L0 235L0 235L0 209L0 209L0 183L0 183L0 157L0 157L0 130L0 130L0 104L0 104L0 78L0 78L0 52L0 52L0 26L0 26L0 0L0 0Z" fill="#dfcbb3"></path><path d="M149 0L138 0L138 26L123 26L123 52L206 52L206 78L204 78L204 104L191 104L191 130L131 130L131 157L178 157L178 183L202 183L202 209L159 209L159 235L121 235L121 261L193 261L193 287L178 287L178 313L197 313L197 339L188 339L188 365L144 365L144 391L119 391L119 417L115 417L115 443L167 443L167 470L179 470L179 496L169 496L169 522L133 522L133 548L200 548L200 574L188 574L188 600L0 600L0 574L0 574L0 548L0 548L0 522L0 522L0 496L0 496L0 470L0 470L0 443L0 443L0 417L0 417L0 391L0 391L0 365L0 365L0 339L0 339L0 313L0 313L0 287L0 287L0 261L0 261L0 235L0 235L0 209L0 209L0 183L0 183L0 157L0 157L0 130L0 130L0 104L0 104L0 78L0 78L0 52L0 52L0 26L0 26L0 0L0 0Z" fill="#e4d6c6"></path><path d="M127 0L66 0L66 26L127 26L127 52L117 52L117 78L146 78L146 104L113 104L113 130L105 130L105 157L122 157L122 183L96 183L96 209L128 209L128 235L123 235L123 261L71 261L71 287L116 287L116 313L101 313L101 339L61 339L61 365L131 365L131 391L59 391L59 417L101 417L101 443L129 443L129 470L122 470L122 496L137 496L137 522L69 522L69 548L109 548L109 574L86 574L86 600L0 600L0 574L0 574L0 548L0 548L0 522L0 522L0 496L0 496L0 470L0 470L0 443L0 443L0 417L0 417L0 391L0 391L0 365L0 365L0 339L0 339L0 313L0 313L0 287L0 287L0 261L0 261L0 235L0 235L0 209L0 209L0 183L0 183L0 157L0 157L0 130L0 130L0 104L0 104L0 78L0 78L0 52L0 52L0 26L0 26L0 0L0 0Z" fill="#e7e0d8"></path><path d="M57 0L14 0L14 26L81 26L81 52L81 52L81 78L18 78L18 104L37 104L37 130L67 130L67 157L18 157L18 183L98 183L98 209L54 209L54 235L87 235L87 261L53 261L53 287L87 287L87 313L47 313L47 339L33 339L33 365L25 365L25 391L99 391L99 417L17 417L17 443L61 443L61 470L47 470L47 496L13 496L13 522L18 522L18 548L82 548L82 574L55 574L55 600L0 600L0 574L0 574L0 548L0 548L0 522L0 522L0 496L0 496L0 470L0 470L0 443L0 443L0 417L0 417L0 391L0 391L0 365L0 365L0 339L0 339L0 313L0 313L0 287L0 287L0 261L0 261L0 235L0 235L0 209L0 209L0 183L0 183L0 157L0 157L0 130L0 130L0 104L0 104L0 78L0 78L0 52L0 52L0 26L0 26L0 0L0 0Z" fill="#ebebeb"></path></svg>