<svg id="visual" viewBox="0 0 960 540" width="960" height="540" xmlns="http://www.w3.org/2000/svg" xmlns:xlink="http://www.w3.org/1999/xlink" version="1.1"><path d="M0 28L69 28L69 28L137 28L137 17L206 17L206 23L274 23L274 17L343 17L343 33L411 33L411 23L480 23L480 17L549 17L549 23L617 23L617 17L686 17L686 23L754 23L754 28L823 28L823 23L891 23L891 28L960 28L960 28L960 0L960 0L891 0L891 0L823 0L823 0L754 0L754 0L686 0L686 0L617 0L617 0L549 0L549 0L480 0L480 0L411 0L411 0L343 0L343 0L274 0L274 0L206 0L206 0L137 0L137 0L69 0L69 0L0 0Z" fill="#f9f9f9"></path><path d="M0 104L69 104L69 168L137 168L137 141L206 141L206 163L274 163L274 168L343 168L343 168L411 168L411 163L480 163L480 104L549 104L549 185L617 185L617 98L686 98L686 93L754 93L754 104L823 104L823 125L891 125L891 131L960 131L960 147L960 26L960 26L891 26L891 21L823 21L823 26L754 26L754 21L686 21L686 15L617 15L617 21L549 21L549 15L480 15L480 21L411 21L411 31L343 31L343 15L274 15L274 21L206 21L206 15L137 15L137 26L69 26L69 26L0 26Z" fill="#f5eee7"></path><path d="M0 136L69 136L69 201L137 201L137 168L206 168L206 179L274 179L274 190L343 190L343 201L411 201L411 190L480 190L480 120L549 120L549 217L617 217L617 120L686 120L686 109L754 109L754 120L823 120L823 147L891 147L891 158L960 158L960 174L960 145L960 129L891 129L891 123L823 123L823 102L754 102L754 91L686 91L686 96L617 96L617 183L549 183L549 102L480 102L480 161L411 161L411 166L343 166L343 166L274 166L274 161L206 161L206 139L137 139L137 166L69 166L69 102L0 102Z" fill="#f0e3d4"></path><path d="M0 260L69 260L69 260L137 260L137 260L206 260L206 233L274 233L274 249L343 249L343 276L411 276L411 249L480 249L480 239L549 239L549 303L617 303L617 271L686 271L686 255L754 255L754 255L823 255L823 244L891 244L891 293L960 293L960 228L960 172L960 156L891 156L891 145L823 145L823 118L754 118L754 107L686 107L686 118L617 118L617 215L549 215L549 118L480 118L480 188L411 188L411 199L343 199L343 188L274 188L274 177L206 177L206 166L137 166L137 199L69 199L69 134L0 134Z" fill="#ead8c2"></path><path d="M0 330L69 330L69 325L137 325L137 325L206 325L206 298L274 298L274 352L343 352L343 320L411 320L411 341L480 341L480 336L549 336L549 357L617 357L617 347L686 347L686 325L754 325L754 320L823 320L823 314L891 314L891 363L960 363L960 298L960 226L960 291L891 291L891 242L823 242L823 253L754 253L754 253L686 253L686 269L617 269L617 301L549 301L549 237L480 237L480 247L411 247L411 274L343 274L343 247L274 247L274 231L206 231L206 258L137 258L137 258L69 258L69 258L0 258Z" fill="#e5cdb0"></path><path d="M0 352L69 352L69 347L137 347L137 363L206 363L206 336L274 336L274 379L343 379L343 347L411 347L411 374L480 374L480 363L549 363L549 374L617 374L617 368L686 368L686 363L754 363L754 336L823 336L823 330L891 330L891 390L960 390L960 330L960 296L960 361L891 361L891 312L823 312L823 318L754 318L754 323L686 323L686 345L617 345L617 355L549 355L549 334L480 334L480 339L411 339L411 318L343 318L343 350L274 350L274 296L206 296L206 323L137 323L137 323L69 323L69 328L0 328Z" fill="#dfc29f"></path><path d="M0 417L69 417L69 411L137 411L137 401L206 401L206 368L274 368L274 417L343 417L343 401L411 401L411 411L480 411L480 395L549 395L549 411L617 411L617 401L686 401L686 401L754 401L754 363L823 363L823 384L891 384L891 422L960 422L960 384L960 328L960 388L891 388L891 328L823 328L823 334L754 334L754 361L686 361L686 366L617 366L617 372L549 372L549 361L480 361L480 372L411 372L411 345L343 345L343 377L274 377L274 334L206 334L206 361L137 361L137 345L69 345L69 350L0 350Z" fill="#d9b88d"></path><path d="M0 465L69 465L69 433L137 433L137 438L206 438L206 406L274 406L274 444L343 444L343 422L411 422L411 433L480 433L480 428L549 428L549 449L617 449L617 438L686 438L686 433L754 433L754 411L823 411L823 422L891 422L891 455L960 455L960 428L960 382L960 420L891 420L891 382L823 382L823 361L754 361L754 399L686 399L686 399L617 399L617 409L549 409L549 393L480 393L480 409L411 409L411 399L343 399L343 415L274 415L274 366L206 366L206 399L137 399L137 409L69 409L69 415L0 415Z" fill="#d2ad7c"></path><path d="M0 487L69 487L69 460L137 460L137 476L206 476L206 449L274 449L274 476L343 476L343 460L411 460L411 455L480 455L480 455L549 455L549 476L617 476L617 465L686 465L686 471L754 471L754 449L823 449L823 455L891 455L891 471L960 471L960 444L960 426L960 453L891 453L891 420L823 420L823 409L754 409L754 431L686 431L686 436L617 436L617 447L549 447L549 426L480 426L480 431L411 431L411 420L343 420L343 442L274 442L274 404L206 404L206 436L137 436L137 431L69 431L69 463L0 463Z" fill="#cca36b"></path><path d="M0 509L69 509L69 503L137 503L137 503L206 503L206 503L274 503L274 514L343 514L343 498L411 498L411 498L480 498L480 503L549 503L549 509L617 509L617 503L686 503L686 498L754 498L754 503L823 503L823 487L891 487L891 509L960 509L960 492L960 442L960 469L891 469L891 453L823 453L823 447L754 447L754 469L686 469L686 463L617 463L617 474L549 474L549 453L480 453L480 453L411 453L411 458L343 458L343 474L274 474L274 447L206 447L206 474L137 474L137 458L69 458L69 485L0 485Z" fill="#c49959"></path><path d="M0 519L69 519L69 514L137 514L137 514L206 514L206 525L274 525L274 530L343 530L343 514L411 514L411 525L480 525L480 514L549 514L549 525L617 525L617 514L686 514L686 525L754 525L754 525L823 525L823 514L891 514L891 525L960 525L960 519L960 490L960 507L891 507L891 485L823 485L823 501L754 501L754 496L686 496L686 501L617 501L617 507L549 507L549 501L480 501L480 496L411 496L411 496L343 496L343 512L274 512L274 501L206 501L206 501L137 501L137 501L69 501L69 507L0 507Z" fill="#bd8f48"></path><path d="M0 541L69 541L69 541L137 541L137 541L206 541L206 541L274 541L274 541L343 541L343 541L411 541L411 541L480 541L480 541L549 541L549 541L617 541L617 541L686 541L686 541L754 541L754 541L823 541L823 541L891 541L891 541L960 541L960 541L960 517L960 523L891 523L891 512L823 512L823 523L754 523L754 523L686 523L686 512L617 512L617 523L549 523L549 512L480 512L480 523L411 523L411 512L343 512L343 528L274 528L274 523L206 523L206 512L137 512L137 512L69 512L69 517L0 517Z" fill="#b58536"></path></svg>