<svg xmlns="http://www.w3.org/2000/svg" data-name="Layer 1" width="576.5" height="493.5" viewBox="0 0 576.49928 493.5" xmlns:xlink="http://www.w3.org/1999/xlink"><path d="M 481.2 691.6 c 9.3 -7.8 14.9 -20.2 13.4 -32.2 s -10.6 -23.1 -22.4 -25.6 s -25.3 4.5 -28.9 16.1 c -2 -22.3 -4.3 -45.5 -16.1 -64.5 c -10.7 -17.2 -29.3 -29.5 -49.5 -31.7 s -41.4 6.1 -54 22 s -15.6 39 -6.8 57.3 c 6.5 13.5 18.4 23.5 31 31.6 a 199.8 199.8 0 0 0 136.6 29.9" transform="translate(-311.8,-203.3)" fill="#f2f2f2"/><path d="M 343.5 560.2 A 326.9 326.9 0 0 1 389.1 605.4 a 327.8 327.8 0 0 1 51.3 85.7 c 0.9 2.3 -2.8 3.2 -3.7 1 a 324.5 324.5 0 0 0 -29.6 -56.1 a 325.7 325.7 0 0 0 -66.2 -73.2 c -1.9 -1.5 0.8 -4.2 2.7 -2.7 Z" transform="translate(-311.8,-203.3)" fill="#ffffff"/><path d="M 487.6 691.6 c -9.3 -7.8 -14.9 -20.2 -13.4 -32.2 s 10.6 -23.1 22.4 -25.6 s 25.3 4.5 28.9 16.1 c 2 -22.3 4.3 -45.5 16.1 -64.5 c 10.7 -17.2 29.3 -29.5 49.5 -31.7 s 41.4 6.1 54 22 s 15.6 39 6.8 57.3 c -6.5 13.5 -18.4 23.5 -31 31.6 a 199.8 199.8 0 0 1 -136.6 29.9" transform="translate(-311.8,-203.3)" fill="#f2f2f2"/><path d="M 625.2 560.2 A 326.9 326.9 0 0 0 579.6 605.4 a 327.8 327.8 0 0 0 -51.3 85.7 c -0.9 2.3 2.8 3.2 3.7 1 a 326 326 0 0 1 95.9 -129.3 c 1.9 -1.5 -0.8 -4.2 -2.7 -2.7 Z" transform="translate(-311.8,-203.3)" fill="#ffffff"/><circle cx="203.3" cy="191" r="31" fill="#f2f2f2"/><path d="M 419.4 287.4 H 633 V 299.1 H 446.7 a 83.4 83.4 0 0 0 -83.4 83.4 V 515.3 H 339.9 a 3.9 3.9 0 0 1 -3.9 -3.9 V 370.8 A 83.4 83.4 0 0 1 419.4 287.4 Z" transform="matrix(1,0,0,1,-311.8,-203.3)" fill="#f2f2f2"/><path d="M 460.5 692.3 V 514.8 h 52 v 177.5 a 4.5 4.5 0 0 1 -4.5 4.5 h -43 A 4.5 4.5 0 0 1 460.5 692.3 Z" transform="translate(-311.8,-203.3)" fill="#3f3d56"/><path d="M 325 511.3 V 366.9 A 86.8 86.8 0 0 1 411.7 280.3 H 632 v 236 h -302 A 5 5 0 0 1 325 511.3 Z m 305 -229 H 411.7 a 84.8 84.8 0 0 0 -84.7 84.7 V 511.3 a 3 3 0 0 0 3 3 h 300 Z" transform="translate(-311.8,-203.3)" fill="#3f3d56"/><path d="M 515 410.3 a 18 18 0 0 1 -18 -18 v -129 a 3 3 0 0 0 -3 -3 h -70 a 5 5 0 0 1 -5 -5 v -47 a 5 5 0 0 1 5 -5 h 104 a 5 5 0 0 1 5 5 v 184 A 18 18 0 0 1 515 410.3 Z" transform="translate(-311.8,-203.3)" fill="#b58536"/><path d="M 640 278.3 h 0 a 56.9 56.9 0 0 1 57 56.8 V 499.3 h 112 a 17 17 0 0 1 17 16.9 h -243 V 335 A 56.9 56.9 0 0 1 640 278.3 Z" transform="translate(-311.8,-203.3)" fill="#3f3d56"/><path d="M 626.3 371.8 l 11.8 48.8 L 869 364.7 l -11.8 -48.8 a 3.6 3.6 0 0 0 -2.4 -2.6 a 3.6 3.6 0 0 0 -1.3 -0.2 L 720.1 244 a 3.7 3.7 0 0 0 -4.7 1.1 l -64.3 89.7 L 626.9 368.7 a 0.5 0.5 0 0 0 -0.1 0.4 A 3.6 3.6 0 0 0 626.3 371.8 Z" transform="translate(-311.8,-203.3)" fill="#ffffff"/><path d="M 626.8 369.1 a 0.5 0.5 0 0 0 0.2 0.3 a 0.6 0.6 0 0 0 0.4 0.1 a 0.5 0.5 0 0 0 0.3 -0.2 l 0.1 -0.1 l 1.3 -1.8 l 22.9 -32 l 64.3 -89.7 a 2.6 2.6 0 0 1 3.3 -0.8 l 132.4 68.6 l 1.2 0.6 a 1.3 1.3 0 0 0 0.1 0.1 a 1.6 1.6 0 0 1 0.3 0 a 0.5 0.5 0 0 0 0.3 -0.2 a 0.5 0.5 0 0 0 -0.2 -0.7 l -0.2 -0.1 L 720.1 244 a 3.7 3.7 0 0 0 -4.7 1.1 l -64.3 89.7 L 626.9 368.7 A 0.5 0.5 0 0 0 626.8 369.1 Z" transform="translate(-311.8,-203.3)" fill="#3f3d56"/><path d="M 696.1 374.1 l 5.1 0.6 l 38.1 4.2 l 25.3 2.8 l 1.5 0.2 l 31.6 -24.6 l 1.2 -0.9 l 7.5 -5.8 l 26.5 -20.7 l 0.2 -1.5 l 9.4 -85.1 a 4.5 4.5 0 0 0 -3.9 -4.9 L 712.7 224.3 a 4.5 4.5 0 0 0 -4.9 3.9 L 701.1 288.2 l -3.7 33.3 L 694.1 351.3 l -1.5 13.8 l -0.4 4 A 4.5 4.5 0 0 0 696.1 374.1 Z" transform="translate(-311.8,-203.3)" fill="#e6e6e6"/><path d="M 730.7 299.4 l 54.5 6 l 19.3 2.1 a 6.5 6.5 0 1 0 1.4 -13 l -24 -2.7 l -49.8 -5.5 a 6.5 6.5 0 0 0 -1.4 13 Z" transform="translate(-311.8,-203.3)" fill="#ffffff"/><path d="M 727.6 323.6 c 0.1 0 0.3 0.1 0.4 0.1 l 63.3 7 l 10.6 1.2 a 6.5 6.5 0 0 0 1.4 -13 l -15.3 -1.7 l -50.1 -5.6 l -8.4 -0.9 a 6.5 6.5 0 0 0 -1.9 12.9 Z" transform="translate(-311.8,-203.3)" fill="#ffffff"/><path d="M 720.4 344.9 a 6.5 6.5 0 0 0 4.9 3.1 l 25.9 2.9 l 46.2 5.1 l 0 0 l 1.5 0.2 l 7.5 -5.8 a 6.5 6.5 0 0 0 0 -1.3 a 6.6 6.6 0 0 0 -5.8 -5.8 l -6.4 -0.7 l -25.5 -2.8 l -18.3 -2 l -23.7 -2.6 a 6.5 6.5 0 0 0 -6.3 9.9 Z" transform="translate(-311.8,-203.3)" fill="#ffffff"/><path d="M 756.9 270 l 13.6 1.5 l 6 0.7 l 9.1 1 a 6.5 6.5 0 0 0 1.4 -13 l -28.6 -3.2 a 6.5 6.5 0 1 0 -1.4 13 Z" transform="translate(-311.8,-203.3)" fill="#ffffff"/><path d="M 645.9 306.2 l 16.5 68.3 l 27.6 5.2 l 25.5 4.9 l 27.4 5.2 l 8.8 1.7 a 3.7 3.7 0 0 0 2.9 -0.7 l 7 -5.5 l 4.4 -3.5 l 31.6 -24.6 l -20.1 -82.9 a 4.4 4.4 0 0 0 -1.2 -2.2 a 4.4 4.4 0 0 0 -4.1 -1.1 L 649.2 300.8 A 4.5 4.5 0 0 0 645.9 306.2 Z" transform="translate(-311.8,-203.3)" fill="#b58536"/><path d="M 683.9 360.5 a 6.5 6.5 0 0 0 7.9 4.8 l 72.2 -17.5 a 6.5 6.5 0 0 0 4.8 -7.9 a 2.1 2.1 0 0 0 -0.1 -0.2 a 6.5 6.5 0 0 0 -7.8 -4.6 l -72.2 17.5 A 6.5 6.5 0 0 0 683.9 360.5 Z" transform="translate(-311.8,-203.3)" fill="#ffffff"/><path d="M 690.1 379.7 l 25.5 4.9 L 769.7 371.5 a 6.5 6.5 0 1 0 -3.1 -12.7 l -72.2 17.5 a 6.5 6.5 0 0 0 -3.7 2.5 A 6.6 6.6 0 0 0 690.1 379.7 Z" transform="translate(-311.8,-203.3)" fill="#ffffff"/><path d="M 743 389.8 l 8.8 1.7 a 3.7 3.7 0 0 0 2.9 -0.7 l 7 -5.5 Z" transform="translate(-311.8,-203.3)" fill="#ffffff"/><path d="M 698.4 323.9 a 6.5 6.5 0 0 0 7.9 4.8 l 28 -6.8 a 6.5 6.5 0 0 0 4.8 -7.9 a 6.5 6.5 0 0 0 -1.2 -2.5 a 6.5 6.5 0 0 0 -6.7 -2.3 l -28 6.8 a 6.5 6.5 0 0 0 -4.8 7.9 Z" transform="translate(-311.8,-203.3)" fill="#ffffff"/><path d="M 715.6 384.6 l 27.4 5.2 l 8.8 1.7 a 3.7 3.7 0 0 0 2.9 -0.7 l 7 -5.5 l -2.5 0.6 l -5.2 4.1 a 2.6 2.6 0 0 1 -2.1 0.5 l -6.5 -1.2 l -27.4 -5.2 Z m 81.8 -28.5 l 0.3 1.1 l 1.2 -0.9 Z m -81.8 28.5 l 27.4 5.2 l 8.8 1.7 a 3.7 3.7 0 0 0 2.9 -0.7 l 7 -5.5 l -2.5 0.6 l -5.2 4.1 a 2.6 2.6 0 0 1 -2.1 0.5 l -6.5 -1.2 l -27.4 -5.2 Z m 0 0 l 27.4 5.2 l 8.8 1.7 a 3.7 3.7 0 0 0 2.9 -0.7 l 7 -5.5 l -2.5 0.6 l -5.2 4.1 a 2.6 2.6 0 0 1 -2.1 0.5 l -6.5 -1.2 l -27.4 -5.2 Z m -89.3 -12.8 l 30.9 127.7 a 3.7 3.7 0 0 0 4.4 2.7 l 223.8 -54.2 a 3.7 3.7 0 0 0 2.7 -4.4 l -30.9 -127.7 a 3.6 3.6 0 0 0 -2.4 -2.6 a 3.6 3.6 0 0 0 -1.3 -0.2 a 3.5 3.5 0 0 0 -1.5 0.4 a 3.2 3.2 0 0 0 -0.6 0.4 l -18.4 14.3 l -26.7 20.8 l -8.9 7 l 0 0 l 0 0 l -32.8 25.6 l -5.4 4.2 l -5.2 4.1 a 2.6 2.6 0 0 1 -2.1 0.5 l -6.5 -1.2 l -27.4 -5.2 L 690.7 378.8 L 630.6 367.4 a 3.6 3.6 0 0 0 -1.5 0 a 3.7 3.7 0 0 0 -1.8 1 a 4.1 4.1 0 0 0 -0.5 0.7 A 3.6 3.6 0 0 0 626.3 371.8 Z m 89.3 12.8 l 27.4 5.2 l 8.8 1.7 a 3.7 3.7 0 0 0 2.9 -0.7 l 7 -5.5 l -2.5 0.6 l -5.2 4.1 a 2.6 2.6 0 0 1 -2.1 0.5 l -6.5 -1.2 l -27.4 -5.2 Z m 0 0 l 27.4 5.2 l 8.8 1.7 a 3.7 3.7 0 0 0 2.9 -0.7 l 7 -5.5 l -2.5 0.6 l -5.2 4.1 a 2.6 2.6 0 0 1 -2.1 0.5 l -6.5 -1.2 l -27.4 -5.2 Z m 0 0 l 27.4 5.2 l 8.8 1.7 a 3.7 3.7 0 0 0 2.9 -0.7 l 7 -5.5 l -2.5 0.6 l -5.2 4.1 a 2.6 2.6 0 0 1 -2.1 0.5 l -6.5 -1.2 l -27.4 -5.2 Z" transform="translate(-311.8,-203.3)" fill="#ffffff"/><path d="M 715.6 384.6 l 27.4 5.2 l 8.8 1.7 a 3.7 3.7 0 0 0 2.9 -0.7 l 7 -5.5 l -2.5 0.6 l -5.2 4.1 a 2.6 2.6 0 0 1 -2.1 0.5 l -6.5 -1.2 l -27.4 -5.2 Z m 81.8 -28.5 l 0.3 1.1 l 1.2 -0.9 Z m -81.8 28.5 l 27.4 5.2 l 8.8 1.7 a 3.7 3.7 0 0 0 2.9 -0.7 l 7 -5.5 l -2.5 0.6 l -5.2 4.1 a 2.6 2.6 0 0 1 -2.1 0.5 l -6.5 -1.2 l -27.4 -5.2 Z m 0 0 l 27.4 5.2 l 8.8 1.7 a 3.7 3.7 0 0 0 2.9 -0.7 l 7 -5.5 l -2.5 0.6 l -5.2 4.1 a 2.6 2.6 0 0 1 -2.1 0.5 l -6.5 -1.2 l -27.4 -5.2 Z M 627.8 369.2 l 0.1 0.1 c 0 0 0.1 -0.1 0.1 -0.1 a 2.6 2.6 0 0 1 2.4 -0.8 l 59.7 11.4 l 25.5 4.9 l 27.4 5.2 l 8.8 1.7 a 3.7 3.7 0 0 0 2.9 -0.7 l 7 -5.5 l -2.5 0.6 l -5.2 4.1 a 2.6 2.6 0 0 1 -2.1 0.5 l -6.5 -1.2 l -27.4 -5.2 L 690.7 378.8 L 630.6 367.4 a 3.6 3.6 0 0 0 -1.5 0 Z m -1.4 2.7 l 30.9 127.7 a 3.7 3.7 0 0 0 4.4 2.7 l 223.8 -54.2 a 3.7 3.7 0 0 0 2.7 -4.4 l -30.9 -127.7 a 3.6 3.6 0 0 0 -2.4 -2.6 a 3.6 3.6 0 0 0 -1.3 -0.2 a 3.5 3.5 0 0 0 -1.5 0.4 a 3.2 3.2 0 0 0 -0.6 0.4 l -18.4 14.3 l -26.7 20.8 l -8.9 7 l 0 0 l 0 0 l -32.8 25.6 l -5.4 4.2 l -5.2 4.1 a 2.6 2.6 0 0 1 -2.1 0.5 l -6.5 -1.2 l -27.4 -5.2 L 690.7 378.8 L 630.6 367.4 a 3.6 3.6 0 0 0 -1.5 0 a 3.7 3.7 0 0 0 -1.8 1 a 4.1 4.1 0 0 0 -0.5 0.7 A 3.6 3.6 0 0 0 626.3 371.8 Z m 1 -0.2 a 2.6 2.6 0 0 1 0.5 -2.2 a 0.3 0.3 0 0 1 0.1 -0.1 c 0 0 0.1 -0.1 0.1 -0.1 a 2.6 2.6 0 0 1 2.4 -0.8 l 59.7 11.4 l 25.5 4.9 l 27.4 5.2 l 8.8 1.7 a 3.7 3.7 0 0 0 2.9 -0.7 l 7 -5.5 l 4.4 -3.5 l 31.5 -24.6 l 1.2 -0.9 l 7.4 -5.8 l 26.5 -20.7 l 19.2 -15 a 2.6 2.6 0 0 1 1 -0.5 a 2 2 0 0 1 0.3 -0.1 a 1.6 1.6 0 0 1 0.3 0 a 2.7 2.7 0 0 1 0.9 0.1 a 2.6 2.6 0 0 1 1.7 1.9 l 30.9 127.7 a 2.6 2.6 0 0 1 -1.9 3.2 L 661.4 501.2 a 2.6 2.6 0 0 1 -3.2 -1.9 Z m 88.2 13 l 27.4 5.2 l 8.8 1.7 a 3.7 3.7 0 0 0 2.9 -0.7 l 7 -5.5 l -2.5 0.6 l -5.2 4.1 a 2.6 2.6 0 0 1 -2.1 0.5 l -6.5 -1.2 l -27.4 -5.2 Z m 0 0 l 27.4 5.2 l 8.8 1.7 a 3.7 3.7 0 0 0 2.9 -0.7 l 7 -5.5 l -2.5 0.6 l -5.2 4.1 a 2.6 2.6 0 0 1 -2.1 0.5 l -6.5 -1.2 l -27.4 -5.2 Z m 0 0 l 27.4 5.2 l 8.8 1.7 a 3.7 3.7 0 0 0 2.9 -0.7 l 7 -5.5 l -2.5 0.6 l -5.2 4.1 a 2.6 2.6 0 0 1 -2.1 0.5 l -6.5 -1.2 l -27.4 -5.2 Z" transform="translate(-311.8,-203.3)" fill="#3f3d56"/><path d="M 827.1 423 a 8.1 8.1 0 0 1 6 -9.8 l 28.2 -6.8 a 8.1 8.1 0 0 1 3.8 15.8 l -28.2 6.8 A 8.1 8.1 0 0 1 827.1 423 Z" transform="translate(-311.8,-203.3)" fill="#b58536"/><circle cx="203.3" cy="189" r="7" fill="#ffffff"/></svg>